<?xml version="1.0" encoding="UTF-8" standalone="no"?>
<svg
   width="64"
   height="64"
   version="1.1"
   id="svg3"
   sodipodi:docname="protonvpn.svg"
   xmlns:inkscape="http://www.inkscape.org/namespaces/inkscape"
   xmlns:sodipodi="http://sodipodi.sourceforge.net/DTD/sodipodi-0.dtd"
   xmlns="http://www.w3.org/2000/svg"
   xmlns:svg="http://www.w3.org/2000/svg">
  <defs
     id="defs3" />
  <sodipodi:namedview
     id="namedview3"
     pagecolor="#ffffff"
     bordercolor="#111111"
     borderopacity="1"
     inkscape:showpageshadow="0"
     inkscape:pageopacity="0"
     inkscape:pagecheckerboard="1"
     inkscape:deskcolor="#d1d1d1" />
  <rect
     x="6"
     y="6"
     width="52"
     height="52"
     rx="8"
     ry="8"
     fill="#f4f2f8"
     fill-rule="evenodd"
     stop-color="#000000"
     stroke-linecap="round"
     stroke-linejoin="round"
     stroke-width="1.8909"
     style="paint-order:stroke fill markers"
     id="rect1" />
  <g
     transform="matrix(0.73755172,0,0,0.7221105,5.974037,4.4401357)"
     id="g3">
    <path
       d="m 51.833295,52.931547 7.85874,10.161102 h -10.1918 l -3.99077,-5.126599 q -4.94241,2.701441 -11.02065,2.701441 -10.161104,0 -16.884008,-6.999188 -6.722908,-7.029886 -6.722908,-16.730515 0,-6.477318 3.131218,-11.8802 3.131217,-5.43358 8.595496,-8.626192 5.494972,-3.192613 11.788102,-3.192613 9.60854,0 16.48493,6.937793 6.9071,6.937791 6.9071,16.914703 0,9.17876 -5.95545,15.840268 z m -5.37219,-6.937792 q 2.73214,-4.052161 2.73214,-8.963872 0,-6.415922 -4.32844,-10.897858 -4.32845,-4.481936 -10.46809,-4.481936 -6.32382,0 -10.590873,4.359143 -4.267049,4.359144 -4.267049,11.082047 0,7.490359 5.372184,11.849503 4.205648,3.407499 9.547138,3.407499 3.06982,0 5.77126,-1.19723 l -8.07363,-10.406687 h 10.2532 z"
       id="text3"
       style="font-weight:bold;font-size:62.8699px;font-family:'Century Gothic';-inkscape-font-specification:'Century Gothic, Bold';fill:#830808;fill-opacity:1;stroke-width:1.47351"
       aria-label="Q" />
  </g>
</svg>
