<?xml version="1.0" encoding="UTF-8"?>
<svg id="svg11" width="512" height="512" clip-rule="evenodd" fill-rule="evenodd" image-rendering="optimizeQuality" shape-rendering="geometricPrecision" text-rendering="geometricPrecision" version="1.1" viewBox="0 0 512 512" xmlns="http://www.w3.org/2000/svg">
 <path id="path1" d="m161.32 388.45h105.6c0.279 18.262 7.808 34.642 28.195 47.502h-161.99c16.311-11.815 28.263-26.174 28.194-47.502zm-149.68-315.58h404.97c6.413 0 11.64 5.229 11.64 11.641v276.24c0 6.413-5.227 11.642-11.64 11.642h-404.97c-6.413 0-11.64-5.229-11.64-11.642v-276.24c0-6.412 5.227-11.641 11.64-11.641z" fill="#464646"/>
 <path id="path2" d="m25.057 89.004h378.17c5.681 0 10.28 4.636 10.28 10.282v218.87c0 5.646-4.634 10.282-10.28 10.282h-378.17c-5.645 0-10.28-4.636-10.28-10.282v-218.87c-0.035-5.674 4.627-10.282 10.28-10.282z" fill="#6cc0ef"/>
 <path id="path3" d="m25.057 89.004h378.17c5.681 0 10.28 4.636 10.28 10.282v212.3c0 5.646-4.634 10.282-10.28 10.282-127.4-12.544-258.72-107.66-388.45-222.58-0.035-5.674 4.627-10.282 10.28-10.282z" fill="#7bc6f1"/>
 <path id="path4" d="m351.36 116.53h144.66c7.039 0 12.796 5.765 12.796 12.796v189.29c-20.858 0-43.22-5.108-65.416-10.178-37.518-8.569-74.59-17.038-104.84-1.409v-177.7c0-7.039 5.756-12.796 12.795-12.796z" fill="#a3abb3"/>
 <path id="path5" d="m351.36 113.35h144.66c8.773 0 15.973 7.199 15.973 15.972v293.84c0 8.784-7.188 15.972-15.973 15.972h-144.66c-8.772 0-15.972-7.2-15.972-15.972v-293.84c0-8.78 7.191-15.972 15.972-15.972zm144.66 6.353h-144.66c-5.288 0-9.619 4.329-9.619 9.619v293.84c0 5.293 4.326 9.619 9.619 9.619h144.66c5.279 0 9.62-4.341 9.62-9.619v-293.84c0-5.293-4.326-9.619-9.62-9.619z" fill="#464646" fill-rule="nonzero"/>
 <path id="path6" d="m362.1 149.86h123.18c1.449 0 2.769 0.595 3.72 1.545a5.261 5.261 0 0 1 1.545 3.72v24.124a5.261 5.261 0 0 1-1.545 3.72 5.257 5.257 0 0 1-3.72 1.545h-123.18a5.255 5.255 0 0 1-3.719-1.545 5.257 5.257 0 0 1-1.545-3.72v-24.124a5.277 5.277 0 0 1 5.264-5.265z" fill="#4d4d4d" fill-rule="nonzero"/>
 <rect id="rect6" x="359.47" y="152.49" width="128.45" height="29.394" rx="2.636" ry="2.636" fill="#6b747e"/>
 <path id="path7" d="m455.81 164.93h25.005v10.025h-25.005z" fill="#313131"/>
 <path id="path8" d="m505.65 423.16v-98.232c-20.575-0.472-42.19-5.411-63.654-10.312-36.254-8.281-72.081-16.462-100.25-2.101v110.64c0 5.28 4.339 9.619 9.619 9.619h144.66c5.275 0 9.62-4.344 9.62-9.619z" fill="#6b747e"/>
 <path id="path9" d="m512 321.79v101.37c0 8.781-7.191 15.972-15.973 15.972h-144.66c-8.786 0-15.972-7.186-15.972-15.972v-114.42l1.663-0.909c30.521-16.718 68.207-8.109 106.35 0.604 22.196 5.07 44.558 10.178 65.416 10.178h3.177zm-6.353 101.37v-98.232c-20.575-0.472-42.19-5.411-63.654-10.312-36.254-8.281-72.081-16.462-100.25-2.101v110.64c0 5.28 4.339 9.619 9.619 9.619h144.66c5.275 0 9.62-4.344 9.62-9.619z" fill="#464646" fill-rule="nonzero"/>
 <path id="path10" d="m411.02 346.35c3.25-3.247 7.731-5.26 12.672-5.26 4.937 0 9.42 2.013 12.669 5.26l0.024 0.023c3.248 3.25 5.26 7.735 5.26 12.672 0 4.939-2.012 9.421-5.26 12.67l-0.024 0.023c-3.249 3.248-7.732 5.26-12.669 5.26s-9.422-2.012-12.672-5.26l-0.023-0.023c-3.248-3.249-5.26-7.731-5.26-12.67 0-4.937 2.012-9.422 5.26-12.672zm9.508 40.608a3.162 3.162 0 0 1 6.324 0v16.68a3.162 3.162 0 0 1-6.324 0z" fill="#464646" fill-rule="nonzero"/>
 <path id="path11" d="m423.7 347.12c-6.584 0-11.922 5.338-11.922 11.921 0 6.582 5.338 11.92 11.922 11.92 6.581 0 11.919-5.338 11.919-11.92 0-6.583-5.338-11.921-11.919-11.921z" fill="#dd3e46"/>
</svg>
