<?xml version="1.0" encoding="UTF-8" ?>
<svg xmlns="http://www.w3.org/2000/svg" viewBox="0 0 32 32" version="1.1">
	<path fill="#fb7a24" d="M 28.500151,0 C 30.85985,0 32,1.4942195 31.999975,3.8496554 L 31.999999,28.5 C 32,30.858986 30.866798,32 28.500151,32 H 3.5 C 1.1374412,32 5e-7,30.864324 4.8579736e-7,28.5 L 0,3.5 C 5e-7,1.1394928 1.1360745,0 3.5,0 Z" />
	<path fill="#ffffff" d="m 16.122776,20.355094 c -0.09109,0.552449 -0.154993,1.051696 -0.355307,1.511883 -0.937894,2.156146 -2.536098,3.470037 -4.932157,3.731557 C 8.0030498,25.907646 5.3871901,24.175995 4.6006649,21.486481 4.3156031,20.511782 4.3441541,19.518226 4.447484,18.526242 4.5578369,17.46624 4.8730376,16.461011 5.3652102,15.512801 c 0.07047,-0.135587 0.06912,-0.23795 -0.01903,-0.369273 C 4.5904719,14.017529 4.2972521,12.773676 4.403754,11.431052 4.460634,10.713384 4.6364718,10.02692 4.9650405,9.384004 c 0.9625922,-1.8834 3.0760822,-3.48171 5.9067585,-3.216372 2.488964,0.233236 4.794384,2.360199 5.154223,4.752275 0.01813,0.120098 0.05212,0.237951 0.092,0.415067 0.0596,-0.320784 0.10265,-0.585448 0.158393,-0.847643 0.463623,-2.173206 2.610875,-4.447204 5.654554,-4.475265 3.08492,-0.02829 5.369492,2.368505 5.800484,4.594689 0.182186,0.940803 0.150462,1.880707 2.26e-4,2.820163 -0.150235,0.938558 -0.428499,1.840749 -0.835243,2.700738 -0.08973,0.189687 -0.08045,0.326172 0.03445,0.50239 0.664387,1.020044 0.957607,2.139759 0.919991,3.355775 -0.07863,2.537316 -1.890063,4.812661 -4.3822,5.407762 -3.479429,0.830582 -6.146501,-1.230833 -7.044059,-3.724823 -0.146383,-0.405863 -0.215723,-0.829684 -0.30183,-1.313666 z m 6.321208,-4.457756 c 0.03716,-0.143443 0.14933,-0.22942 0.229999,-0.3356 0.872406,-1.148448 1.331269,-2.43136 1.228846,-3.8759 -0.07455,-1.054389 -0.949904,-1.796974 -2.00948,-1.75769 -1.060258,0.03928 -1.859246,0.849438 -1.874202,1.900461 -0.0011,0.08598 0.0041,0.172178 -0.0014,0.257705 -0.07296,1.120163 -0.696791,1.733671 -1.642164,1.802138 -0.172668,0.01257 -0.345789,0.02784 -0.518684,0.02829 -1.227035,0.0027 -2.453842,0.0022 -3.680877,0.0011 -0.535906,-4.49e-4 -1.067281,0.05724 -1.577582,0.213258 -2.382237,0.728218 -3.771289,2.342017 -4.2312855,4.747337 -0.09109,0.475901 -0.1731209,0.96976 -0.01564,1.458681 0.2259198,0.701056 0.6471674,1.222527 1.3929047,1.396949 0.7729308,0.180708 1.4461558,-0.0193 1.9809288,-0.620691 0.345791,-0.388803 0.454785,-0.850785 0.480618,-1.35789 0.06685,-1.304238 0.783805,-1.956132 1.979342,-1.946256 1.834095,0.01504 3.668414,0.0031 5.502733,0.0045 0.325623,2.25e-4 0.328569,0.0045 0.330156,0.323478 0.0032,0.589264 -0.01519,1.179202 0.0077,1.767792 0.03739,0.960782 0.89076,1.759488 1.880092,1.787548 1.020149,0.02896 1.929492,-0.718566 1.995885,-1.694387 0.05733,-0.8445 0.05371,-1.694387 -0.0022,-2.539561 -0.04328,-0.654363 -0.400626,-1.120612 -1.0061,-1.391336 -0.14525,-0.06465 -0.297977,-0.113139 -0.449572,-0.169933 z M 10.946573,13.914941 c 0.394509,0 0.716505,-0.0036 1.038276,0.0016 0.159526,0.0025 0.218669,-0.06555 0.217309,-0.220441 -0.0052,-0.613059 0.02674,-1.228138 -0.01269,-1.838954 -0.05211,-0.805888 -0.484696,-1.388417 -1.24199,-1.682264 -0.776554,-0.301255 -1.4871695,-0.129302 -2.088111,0.438861 -0.6036594,0.570857 -0.6841024,1.268995 -0.4729116,2.03313 0.1939689,0.702178 0.6523784,1.101083 1.3731908,1.221629 0.4187548,0.06982 0.8397758,0.03636 1.1869258,0.04647 z" />
</svg>
