<?xml version="1.0" encoding="UTF-8" standalone="no"?>
<!-- Created with Inkscape (http://www.inkscape.org/) -->

<svg
   xmlns:dc="http://purl.org/dc/elements/1.1/"
   xmlns:cc="http://creativecommons.org/ns#"
   xmlns:rdf="http://www.w3.org/1999/02/22-rdf-syntax-ns#"
   xmlns:svg="http://www.w3.org/2000/svg"
   xmlns="http://www.w3.org/2000/svg"
   xmlns:sodipodi="http://sodipodi.sourceforge.net/DTD/sodipodi-0.dtd"
   xmlns:inkscape="http://www.inkscape.org/namespaces/inkscape"
   id="svg3076"
   version="1.1"
   inkscape:version="0.48.2 r9819"
   width="128.20164"
   height="128.2204"
   sodipodi:docname="BlackGold.svg">
  <metadata
     id="metadata3082">
    <rdf:RDF>
      <cc:Work
         rdf:about="">
        <dc:format>image/svg+xml</dc:format>
        <dc:type
           rdf:resource="http://purl.org/dc/dcmitype/StillImage" />
        <dc:title />
      </cc:Work>
    </rdf:RDF>
  </metadata>
  <defs
     id="defs3080" />
  <sodipodi:namedview
     pagecolor="#ffffff"
     bordercolor="#666666"
     borderopacity="1"
     objecttolerance="10"
     gridtolerance="10"
     guidetolerance="10"
     inkscape:pageopacity="0"
     inkscape:pageshadow="2"
     inkscape:window-width="1027"
     inkscape:window-height="709"
     id="namedview3078"
     showgrid="false"
     inkscape:zoom="3.8688525"
     inkscape:cx="80.500953"
     inkscape:cy="57.054009"
     inkscape:window-x="242"
     inkscape:window-y="148"
     inkscape:window-maximized="0"
     inkscape:current-layer="g3118"
     fit-margin-left="3"
     fit-margin-top="3"
     fit-margin-right="3"
     fit-margin-bottom="3" />
  <g
     inkscape:groupmode="layer"
     id="layer2"
     inkscape:label="LAYER1"
     style="display:inline"
     transform="translate(2.9999999,3.2204009)" />
  <g
     id="g3118">
    <path
       style="fill:#ffeeaa;fill-opacity:1"
       d="M 49.662159,123.39204 C 28.848397,118.35233 10.456785,100.11132 5.0149002,79.110404 c -2.019867,-7.794916 -2.019867,-22.743224 0,-30.538142 C 9.3817242,31.720138 21.887153,16.488867 37.445176,9.073073 47.497814,4.281443 53.737314,2.841334 64.445171,2.841334 c 17.06239,0 30.67919,5.6522 42.970509,17.836647 12.41389,12.305935 18.00575,25.710733 18.00575,43.163353 0,17.45262 -5.59186,30.85742 -18.00575,43.163346 -8.460039,8.38649 -19.604069,14.65541 -29.769729,16.74656 -6.96257,1.43225 -21.34778,1.24761 -27.983792,-0.3592 z"
       id="path3124"
       inkscape:connector-curvature="0" />
    <path
       style="fill:#8c8c8c;fill-opacity:1"
       d="M 54.32415,124.10635 C 49.345717,123.27298 41.689783,120.48128 35.302616,117.17026 16.577172,107.46322 4.6224201,88.480685 3.5788391,66.797195 2.3731841,41.746139 15.056734,20.257979 37.436507,9.4363641 56.703755,0.11979615 75.083035,0.62247415 94.550355,10.998443 c 17.894595,9.537723 30.773795,31.634623 30.773795,52.798752 0,22.75495 -13.19921,43.980055 -33.845885,54.426145 -10.40724,5.2655 -26.04819,7.74209 -37.154115,5.88301 z m 24.414555,-5.2873 c 10.83553,-2.77126 16.91024,-6.31872 25.688685,-15.00149 11.55325,-11.427325 16.89676,-24.083545 16.89676,-40.020365 0,-15.93682 -5.34351,-28.593044 -16.89676,-40.020365 C 95.648945,15.094066 89.574235,11.546603 78.738705,8.7753431 68.322375,6.1112921 58.531545,6.2234731 48.525919,9.1215141 38.096387,12.142335 30.583788,16.756379 22.976558,24.813272 12.256892,36.166577 7.3241501,48.452076 7.3241501,63.797195 c 0,15.34512 4.9327419,27.63062 15.6524079,38.983925 14.623686,15.48809 34.998907,21.34828 55.762147,16.03793 z M 52.82415,117.62692 C 33.670042,114.00069 15.458658,96.190435 10.829719,76.557465 6.3684281,57.635548 11.719566,39.169934 25.713396,25.197121 c 21.888176,-21.8553009 55.355529,-21.8553009 77.210834,0 21.96529,21.965294 21.96529,55.234854 0,77.200149 -13.478515,13.47851 -31.082875,18.82996 -50.10008,15.22965 z M 73.890495,113.7215 C 92.906685,110.27408 109.3233,94.629655 113.78437,75.704125 120.69973,46.366535 101.30871,17.926277 71.420325,13.570002 50.590469,10.53402 29.278507,21.154689 19.605342,39.391641 -0.64992093,77.579175 31.37488,121.42908 73.890495,113.7215 z M 50.112876,82.845525 c 0.466132,-14.52204 0.413374,-15.04833 -1.508512,-15.04833 -1.762095,0 -2.057192,0.868106 -2.561414,7.53508 -0.658692,8.70942 -3.594855,14.74312 -9.287223,19.08491 -4.994149,3.80922 -6.271785,1.91652 -2.327112,-3.4474 3.755127,-5.10618 5.895535,-11.78601 5.895535,-18.398909 0,-4.50998 -0.168181,-4.855078 -2.071664,-4.250936 -2.021506,0.641601 -5.928336,-1.78206 -5.928336,-3.677733 0,-0.464756 4.05,-0.845012 9,-0.845012 l 9,0 0,-4.5 0,-4.5 -4.393011,0 c -3.194993,0 -4.569164,0.459047 -5.038945,1.683277 -0.580132,1.511799 -0.866335,1.462877 -2.80944,-0.480229 -1.956853,-1.956852 -2.13572,-3.048932 -1.872611,-11.433277 0.159992,-5.098374 0.445944,-9.42712 0.635449,-9.619436 0.189505,-0.192315 1.949705,0.180083 3.911556,0.827552 3.573918,1.1795 4.438347,2.365558 2.567002,3.522113 -0.55,0.339919 -1,3.066476 -1,6.059017 l 0,5.440983 4.143613,0 4.143613,0 -0.535891,-10.5 c -0.595745,-11.672739 -0.520931,-11.788371 5.70592,-8.818994 3.22693,1.538816 3.39523,1.824519 1.98966,3.377655 -1.16812,1.290756 -1.46505,3.579966 -1.24118,9.568994 l 0.29426,7.872345 6.06578,-6.023789 c 3.40545,-3.381881 7.28846,-8.522852 8.85359,-11.721878 l 2.78782,-5.698089 3.39641,2.590567 c 3.92386,2.992876 3.98733,3.184128 1.6464,4.961143 -1.51261,1.148241 -0.86151,1.332753 4.8,1.360243 3.81935,0.01854 7.0526,-0.470788 7.75557,-1.17376 0.94075,-0.94075 1.8526,-0.446518 4.15124,2.25 2.6553,3.114917 2.77849,3.554142 1.24971,4.455563 -0.93279,0.55 -4.27526,3.7 -7.42772,7 l -5.73174,6 4.06305,1.825593 c 3.78043,1.698606 3.95269,1.94754 2.47647,3.578741 -1.7395,1.922129 -2.08942,4.666857 -0.70411,5.523024 0.48535,0.299966 1.9923,-0.32761 3.34878,-1.394612 l 2.46631,-1.940004 3.34739,3.453629 3.347395,3.453629 -6.696175,0 -6.69617,0 0,11.04775 c 0,10.66233 -0.0923,11.1333 -2.64602,13.5 -2.96319,2.74619 -6.35398,3.24573 -6.35398,0.93607 0,-1.36029 -3.42545,-3.38626 -8.25,-4.87943 -0.9625,-0.29789 -1.75,-1.29289 -1.75,-2.2111 0,-1.45638 0.82969,-1.58448 6.5,-1.00354 l 6.5,0.66595 0,-9.11524 0,-9.115238 -13.5,0.324613 -13.5,0.324613 0,12.146142 c 0,10.70941 -0.207,12.20567 -1.749995,12.64932 -0.9625,0.27675 -2.468717,0.80099 -3.347149,1.16497 -1.43357,0.59401 -1.547678,-0.87945 -1.114125,-14.38655 z m 33.211269,-20.667019 0,-5.618689 -3.47091,2.647399 c -1.90901,1.456069 -6.29651,3.984124 -9.75,5.6179 l -6.27909,2.970501 9.75,7.89e-4 9.75,7.89e-4 0,-5.618689 z m -16.87769,-0.370413 c 2.5512,-1.182602 2.58103,-1.30092 1.10005,-4.363231 -2.75916,-5.705277 -3.07919,-5.856103 -7.34206,-3.46023 -3.66021,2.057148 -3.8803,2.451483 -3.8803,6.952345 l 0,4.7715 3.75,-1.34241 c 2.0625,-0.738326 4.93004,-1.889414 6.37231,-2.557974 z m 9.36287,-5.986908 c 0.72624,-1.175083 -1.747,-6.166472 -3.96943,-8.01092 -1.36207,-1.130419 -1.86156,-1.095827 -3.17744,0.220054 -1.41509,1.415092 -1.36346,1.624115 0.55125,2.231822 3.02331,0.959562 4.45008,4.031931 3.06994,6.610748 -1.00995,1.887102 -0.92735,1.977471 0.90912,0.994622 1.111,-0.594589 2.28845,-1.515436 2.61656,-2.046326 z m 6.03341,-13.823119 c -7.77973,-0.341207 -10.17221,0.871535 -5.52051,2.798333 2.1273,0.881155 3.2855,2.168656 3.66706,4.076452 l 0.5577,2.788518 4.05804,-4.682087 4.05804,-4.682087 -6.82033,-0.299129 z m -14.39673,44.520989 c -0.61702,-0.61703 -1.13174,-1.81936 -1.14382,-2.67186 -0.0121,-0.8525 -0.92471,-3.53986 -2.02808,-5.97192 -2.66898,-5.883018 -1.26227,-7.316412 3.56603,-3.63369 4.42806,3.37745 5.84819,6.66223 4.32532,10.00456 -1.32968,2.91832 -3.18196,3.81039 -4.71945,2.27291 z"
       id="path3122"
       inkscape:connector-curvature="0" />
    <path
       style="fill:#000000;fill-opacity:1"
       d="M 54.61056,124.06262 C 41.34688,121.68699 29.54856,115.29285 20.089728,105.35394 2.5054712,86.877204 -1.4154808,60.837617 9.8401302,37.28495 16.951031,22.4052 33.78898,8.9413338 50.247641,4.9745248 c 13.534885,-3.262131 31.524075,-0.669103 43.808295,6.3146902 7.278494,4.137948 16.761984,13.112047 21.374044,20.225958 12.34835,19.046825 12.34835,46.110001 0,65.156821 -4.61637,7.120566 -14.10364,16.095166 -21.374044,20.219036 -10.95804,6.21555 -27.74396,9.26741 -39.445376,7.17159 z m 27.527226,-5.62553 c 13.2291,-4.33825 21.735254,-10.70593 29.484224,-22.071806 10.67138,-15.65236 12.97976,-33.884397 6.59803,-52.11262 -2.50384,-7.15174 -9.8749,-18.023051 -15.69185,-23.14334 C 83.277026,4.1637788 53.954981,2.0706918 32.551625,16.114208 21.460975,23.391185 12.474331,35.594624 8.6337302,48.593584 c -2.376826,8.044645 -2.376826,22.955355 0,31 9.3634038,31.691526 42.2758738,49.084246 73.5040558,38.843506 z m -25.93954,-0.37063 C 29.212702,113.92901 9.7953972,91.344034 9.7953972,64.093584 c 0,-15.022472 5.4878058,-28.347404 15.8560298,-38.5 21.691668,-21.2405462 55.855429,-21.2404782 77.096063,1.53e-4 21.2744,21.274409 21.2744,55.725287 0,76.999693 -12.034454,12.03444 -30.008554,18.00906 -46.549244,15.47303 z m 20.02159,-4.05229 c 12.00317,-2.76585 24.204624,-11.49937 31.222694,-22.348456 10.588,-16.36778 10.588,-38.776482 0,-55.14426 -9.735434,-15.049808 -25.182394,-23.42787 -43.194894,-23.42787 -13.49546,0 -24.51821,4.171739 -34.349161,13 -18.392037,16.516175 -22.2205328,44.896287 -8.845724,65.57213 6.824658,10.550096 17.841499,18.764116 29.299521,21.845346 6.349744,1.70754 19.528264,1.96386 25.867564,0.50311 z m 3.64686,-18.379236 c -0.88919,-1.35707 -3.40495,-2.99613 -5.61501,-3.65829 -6.46556,-1.93712 -5.08434,-3.71645 2.74595,-3.5374 l 6.75,0.15434 0.28966,-8.79968 0.28966,-8.799674 -13.09787,0.158135 c -7.20382,0.08698 -13.37167,-0.11567 -13.70632,-0.450323 -1.92993,-1.929931 -2.394392,0.641612 -2.18004,12.070072 0.21921,11.68736 0.08798,12.73725 -1.678644,13.42971 -1.054042,0.41316 -2.253941,0.78282 -2.666441,0.82147 -0.4125,0.0387 -0.75,-6.45471 -0.75,-14.42971 0,-13.534386 -0.12543,-14.5 -1.883503,-14.5 -1.589179,0 -1.993412,1.054784 -2.586856,6.75 -0.88786,8.52069 -3.205466,13.71706 -8.291516,18.59063 -5.397961,5.17245 -6.245279,3.14549 -1.60597,-3.84182 3.329481,-5.01456 3.750526,-6.39597 4.172806,-13.69061 0.453323,-7.830875 0.397253,-8.094343 -1.610828,-7.569218 -1.309159,0.342353 -2.715147,-0.157215 -3.792304,-1.34746 -1.666553,-1.84152 -1.48301,-1.891522 6.943183,-1.891522 l 8.654988,0 0,-5.5 0,-5.5 -3.671259,0 c -2.019193,0 -4.429977,0.68663 -5.357299,1.525845 -1.518059,1.373825 -1.921194,1.335429 -4.046308,-0.385385 -2.030982,-1.644589 -2.172147,-2.137901 -1.011844,-3.53598 0.973151,-1.172576 1.214651,-3.709214 0.867753,-9.114616 -0.264368,-4.119425 -0.37821,-7.489864 -0.25298,-7.489864 0.125229,0 1.916863,0.705782 3.981409,1.568404 2.793498,1.167199 3.464251,1.857873 2.622124,2.7 -0.622378,0.622378 -1.131596,3.516596 -1.131596,6.431596 l 0,5.3 4,0 4,0 0,-10.5 c 0,-5.775 0.209733,-10.5 0.466073,-10.5 0.25634,0 2.031707,0.746599 3.94526,1.659109 3.244732,1.547304 3.381792,1.798156 2.033922,3.722506 -1.578041,2.252975 -2.1046,17.618385 -0.60376,17.618385 1.81386,0 13.04694,-12.846328 15.54681,-17.779588 1.45496,-2.871227 2.77538,-5.220412 2.93426,-5.220412 0.15888,0 1.77085,1.093366 3.58215,2.429702 3.2405,2.390764 3.25964,2.45071 1.19428,3.740547 -3.434,2.144569 -2.44796,2.829751 4.07226,2.829751 4.06814,0 6.73323,-0.508575 7.82026,-1.492326 1.48017,-1.33953 1.93284,-1.196064 4.42119,1.401209 l 2.77218,2.893535 -8.18327,7.818247 c -9.46084,9.038837 -12.90918,11.531929 -21.36519,15.446674 l -6.13643,2.840883 10.87383,0.04589 10.87383,0.04589 -0.45975,-5.544027 c -0.39567,-4.771234 -0.23869,-5.453936 1.12617,-4.897717 0.87226,0.35547 2.84616,1.102229 4.38644,1.659463 2.56838,0.92917 2.672,1.155175 1.25,2.726458 -1.82591,2.017615 -2.06929,6.055823 -0.36497,6.055823 0.65206,0 2.16109,-0.916466 3.3534,-2.036592 l 2.16786,-2.036591 2.69749,3.536591 2.697494,3.536592 -6.050894,0 -6.0509,0 0,10.576918 c 0,10.35695 -0.0608,10.63772 -2.92307,13.5 -3.55835,3.55835 -4.3914,3.61826 -6.45787,0.46443 z m -13.11906,-33.57041 c 3.30001,-1.624698 7.05186,-3.776932 8.33747,-4.782742 l 2.33746,-1.828746 -3.15695,-4.677719 c -2.71419,-4.02166 -3.42772,-4.532814 -5.08747,-3.644542 -2.5793,1.380403 -2.4332,2.403409 0.62988,4.410415 1.88573,1.235581 2.47859,2.383481 2.25,4.356459 -0.47479,4.097806 -3.35114,3.965987 -5.34946,-0.245159 -1.87887,-3.95944 -2.96022,-4.298343 -6.2848,-1.969715 -1.24789,0.874055 -2.92302,1.338178 -3.72251,1.031384 -1.17321,-0.450206 -1.453615,0.614441 -1.453615,5.519218 l 0,6.077023 2.749995,-0.64594 c 1.51251,-0.355267 5.45001,-1.975239 8.75,-3.599936 z m 21.5,-19.193558 c 0,-1.128104 -13.77107,-0.956814 -14.47367,0.18003 -0.32545,0.526577 0.7411,1.646641 2.37011,2.489033 3.0805,1.592986 4.68828,4.625389 3.60251,6.794606 -0.34658,0.692422 1.42438,-0.978729 3.93545,-3.713669 2.51108,-2.73494 4.5656,-5.32244 4.5656,-5.75 z m -22.06628,39.972618 c -0.62885,-2.3375 -1.76954,-5.46196 -2.53487,-6.94325 -2.26136,-4.376839 0.31029,-4.496671 4.69142,-0.21861 4.03716,3.94219 5.07358,7.84801 2.70974,10.21186 -2.19471,2.1947 -3.71098,1.24436 -4.86629,-3.05 z"
       id="path3120"
       inkscape:connector-curvature="0" />
  </g>
</svg>
