<svg xmlns="http://www.w3.org/2000/svg" viewBox="0 0 178.39 176.69"><path d="M89.235 168.45c-44.702 0-80.919-34.75-80.919-79.37S44.534 8.242 89.235 8.242c44.62 0 80.838 36.218 80.838 80.838s-36.218 79.37-80.838 79.37z" fill="#98141b" fill-rule="evenodd"/><path d="M89.195 43.67c22.32 0 36.72 2.809 43.272 8.28 6.552 5.544 9.864 17.784 9.864 36.576v4.104H89.195V80.607h38.88c-.648-10.368-2.664-16.92-6.049-19.729-4.031-3.456-15.047-5.184-32.832-5.184V43.67zm0 77.4c16.344 0 27-.937 31.824-2.88 4.896-1.944 7.272-6.049 7.272-12.456h14.04c0 11.447-3.313 18.863-9.864 22.248s-20.952 5.04-43.272 5.04zm-.072 11.952c-22.32 0-36.72-2.736-43.272-8.208s-9.792-17.641-9.792-36.36c0-18.792 3.24-30.96 9.792-36.504 6.552-5.472 20.952-8.28 43.272-8.28h.072v12.024h-.072c-17.784 0-28.8 1.728-32.976 5.184-3.24 2.809-5.256 9.36-5.904 19.729h38.952V92.63H50.027c.432 12.313 2.448 20.088 6.264 23.328 4.104 3.384 15.048 5.112 32.832 5.112h.072v11.952z" fill="#fff"/><path d="M89.239 176.19C40.218 176.19.5 138.081.5 89.148S40.218.498 89.239.498c48.932 0 88.65 39.718 88.65 88.65s-39.718 87.042-88.65 87.042z" fill="none" stroke="#98141b" stroke-miterlimit="10"/></svg>
